<?xml version="1.0" encoding="UTF-8"?>
<!DOCTYPE svg PUBLIC "-//W3C//DTD SVG 1.1//EN" "http://www.w3.org/Graphics/SVG/1.1/DTD/svg11.dtd">
<!-- Creator: CorelDRAW 2019 (64-Bit) -->
<svg xmlns="http://www.w3.org/2000/svg" xml:space="preserve" width="79.8687mm" height="48.9042mm" version="1.1" style="shape-rendering:geometricPrecision; text-rendering:geometricPrecision; image-rendering:optimizeQuality; fill-rule:evenodd; clip-rule:evenodd"
viewBox="0 0 4525.21 2770.82"
 xmlns:xlink="http://www.w3.org/1999/xlink">
 <defs>
  <style type="text/css">
   <![CDATA[
    .fil1 {fill:#08354B}
    .fil0 {fill:#322C24;fill-rule:nonzero}
   ]]>
  </style>
 </defs>
 <g id="Capa_x0020_1">
  <metadata id="CorelCorpID_0Corel-Layer"/>
  <path class="fil0" d="M-0 1311l0 -1219.22 517.29 0c73.16,0 138.76,17.13 196.82,51.38 58.06,34.25 104.21,80.7 138.47,139.34 34.26,58.64 51.38,125.11 51.38,199.43 0,75.48 -17.13,143.7 -51.38,204.65 -34.26,60.96 -80.41,109.15 -138.47,144.57 -58.06,35.41 -123.66,53.12 -196.82,53.12l-256.03 0 0 426.73 -261.26 0zm257.78 -663.6l231.65 0c26.7,0 51.09,-6.97 73.15,-20.9 22.06,-13.94 40.06,-33.09 54,-57.48 13.93,-24.39 20.9,-52.25 20.9,-83.6 0,-31.35 -6.97,-58.64 -20.9,-81.86 -13.94,-23.22 -31.93,-41.8 -54,-55.73 -22.06,-13.94 -46.45,-20.9 -73.15,-20.9l-231.65 0 0 320.48z"/>
  <path id="1" class="fil0" d="M982.59 1311l0 -1219.22 822.1 0 0 229.91 -566.07 0 0 759.4 578.26 0 0 229.91 -834.29 0zm121.92 -510.33l0 -222.94 616.58 0 0 222.94 -616.58 0z"/>
  <polygon id="2" class="fil0" points="2186.37,1311 2186.37,326.91 1834.54,326.91 1834.54,91.77 2813.4,91.77 2813.4,326.91 2447.63,326.91 2447.63,1311 "/>
  <path class="fil0" d="M12.19 2753.4l0 -1219.22 188.11 0 0 1219.22 -188.11 0zm83.6 -519.04l0 -181.14 628.77 0 0 181.14 -628.77 0zm0 -519.04l0 -181.14 707.15 0 0 181.14 -707.15 0z"/>
  <path id="1" class="fil0" d="M906.09 2753.4l0 -914.42 179.4 0 0 914.42 -179.4 0zm87.08 -1116.46c-38.32,0 -67.93,-9.87 -88.83,-29.61 -20.9,-19.74 -31.35,-47.6 -31.35,-83.6 0,-33.67 10.74,-60.96 32.22,-81.86 21.48,-20.9 50.8,-31.35 87.96,-31.35 38.32,0 67.93,9.87 88.83,29.61 20.9,19.74 31.35,47.6 31.35,83.6 0,33.68 -10.74,60.96 -32.22,81.87 -21.48,20.9 -50.8,31.35 -87.96,31.35z"/>
  <path id="2" class="fil0" d="M1221.72 2753.4l0 -914.42 179.4 0 0 188.11 -31.35 20.9c11.61,-40.64 34.26,-78.09 67.93,-112.34 33.67,-34.26 73.73,-62.13 120.18,-83.6 46.45,-21.48 94.06,-32.22 142.82,-32.22 69.67,0 127.73,13.64 174.18,40.93 46.44,27.29 81.28,68.8 104.5,124.53 23.22,55.73 34.84,125.99 34.84,210.75l0 557.36 -179.4 0 0 -545.16c0,-52.26 -6.97,-95.51 -20.9,-129.76 -13.93,-34.25 -35.42,-59.22 -64.44,-74.89 -29.03,-15.68 -65.03,-22.35 -107.99,-20.03 -34.83,0 -66.77,5.52 -95.79,16.55 -29.03,11.03 -54.28,26.41 -75.77,46.15 -21.48,19.74 -38.32,42.67 -50.51,68.8 -12.19,26.13 -18.29,54.28 -18.29,84.48l0 553.87 -88.83 0c-15.09,0 -30.19,0 -45.29,0 -15.09,0 -30.19,0 -45.28,0z"/>
  <path id="3" class="fil0" d="M2500.54 2770.82c-83.6,0 -158.21,-20.61 -223.81,-61.83 -65.61,-41.22 -117.57,-97.54 -155.89,-168.95 -38.32,-71.41 -57.47,-152.98 -57.47,-244.72 0,-91.73 18.87,-173.3 56.6,-244.71 37.74,-71.41 89.12,-127.73 154.14,-168.95 65.03,-41.22 138.76,-61.83 221.2,-61.83 45.29,0 89.12,7.26 131.5,21.77 42.38,14.52 80.41,34.26 114.08,59.22 33.67,24.97 60.09,52.26 79.25,81.87 19.16,29.61 28.74,59.51 28.74,89.7l-52.26 3.48 0 -611.35 179.4 0 0 1288.89 -179.4 0 0 -217.72 34.84 0c0,27.87 -9.29,55.45 -27.87,82.73 -18.58,27.29 -43.25,52.54 -74.02,75.77 -30.77,23.22 -66.19,41.8 -106.25,55.73 -40.06,13.93 -80.99,20.9 -122.8,20.9zm24.39 -155.02c54.57,0 102.76,-13.93 144.56,-41.8 41.8,-27.86 74.61,-65.89 98.41,-114.08 23.8,-48.19 35.71,-103.06 35.71,-164.6 0,-61.54 -11.9,-116.4 -35.71,-164.59 -23.8,-48.19 -56.61,-86.22 -98.41,-114.09 -41.8,-27.86 -89.99,-41.8 -144.56,-41.8 -54.57,0 -102.76,13.94 -144.56,41.8 -41.8,27.87 -74.61,65.9 -98.41,114.09 -23.8,48.19 -35.71,103.05 -35.71,164.59 0,61.54 11.9,116.41 35.71,164.6 23.8,48.19 56.61,86.22 98.41,114.08 41.8,27.87 89.99,41.8 144.56,41.8z"/>
  <path id="4" class="fil0" d="M3511.14 2770.82c-94.05,0 -177.37,-20.03 -249.94,-60.09 -72.57,-40.06 -129.47,-94.93 -170.69,-164.59 -41.22,-69.67 -61.83,-149.79 -61.83,-240.36 0,-72 11.61,-137.6 34.83,-196.82 23.22,-59.22 55.45,-110.6 96.66,-154.14 41.22,-43.54 90.57,-77.21 148.05,-101.02 57.48,-23.8 119.89,-35.71 187.24,-35.71 59.22,0 114.38,11.32 165.46,33.97 51.09,22.64 95.51,53.7 133.25,93.18 37.73,39.48 66.77,86.22 87.08,140.21 20.32,54 29.9,112.93 28.74,176.79l-1.74 76.64 -747.21 0 -40.06 -142.82 632.25 0 -26.13 29.61 0 -41.8c-3.48,-38.32 -16.26,-72.57 -38.32,-102.76 -22.06,-30.19 -49.93,-54 -83.6,-71.41 -33.67,-17.42 -70.25,-26.13 -109.73,-26.13 -62.7,0 -115.54,11.9 -158.5,35.71 -42.96,23.81 -75.48,58.64 -97.54,104.51 -22.06,45.86 -33.09,102.47 -33.09,169.82 0,63.87 13.35,119.31 40.06,166.34 26.71,47.03 64.44,83.31 113.21,108.86 48.77,25.55 105.08,38.32 168.95,38.32 45.29,0 87.38,-7.55 126.27,-22.64 38.9,-15.09 80.99,-42.38 126.28,-81.86l90.57 127.15c-27.86,27.86 -61.83,52.25 -101.89,73.15 -40.06,20.9 -82.44,37.45 -127.15,49.64 -44.71,12.19 -88.54,18.29 -131.5,18.29z"/>
  <path id="5" class="fil0" d="M3966.11 2753.4l0 -914.42 181.14 0 0 287.39 -17.42 -69.67c12.77,-44.13 34.54,-84.18 65.32,-120.18 30.77,-35.99 66.18,-64.44 106.25,-85.34 40.06,-20.9 81.57,-31.35 124.53,-31.35 19.74,0 38.61,1.74 56.61,5.22 17.99,3.48 32.22,7.55 42.67,12.19l-47.03 195.07c-13.93,-5.81 -29.32,-10.74 -46.15,-14.8 -16.84,-4.06 -33.38,-6.1 -49.64,-6.1 -31.35,0 -61.25,6.1 -89.7,18.29 -28.45,12.19 -53.42,29.03 -74.9,50.51 -21.48,21.48 -38.61,46.45 -51.38,74.9 -12.77,28.45 -19.16,59.51 -19.16,93.18l0 505.11 -181.14 0z"/>
  <g id="_2589534306448">
   <ellipse class="fil1" cx="3459.96" cy="261.01" rx="199.82" ry="261.01"/>
   <ellipse class="fil1" cx="3929.52" cy="261.01" rx="199.82" ry="261.01"/>
   <ellipse class="fil1" transform="matrix(0.181997 0.059025 -0.0553744 0.170741 4299.58 681.308)" rx="1044.36" ry="1454.11"/>
   <ellipse class="fil1" transform="matrix(-0.181996 0.059025 0.0553739 0.170741 3089.03 674.647)" rx="1044.36" ry="1454.11"/>
   <path class="fil1" d="M3212.13 1089.03c-142.67,118.94 -130.65,290.24 25.24,445.42 95.92,57.55 182.21,81.76 255.69,61.61 31.83,-15.76 61.25,-35.31 87.47,-59.94 38.1,-31.64 75.02,-50.51 113.11,-52.43 38.1,1.92 75.88,20.79 113.98,52.43 26.22,24.63 55.64,44.19 87.47,59.94 73.48,20.15 159.77,-4.06 255.69,-61.61 155.88,-155.18 167.9,-326.49 25.24,-445.42 -65.81,-45.55 -122.89,-96.4 -174.11,-151.94 -46.66,-73.67 -99.4,-146.69 -164.01,-218.13 -36.19,-35.35 -84.31,-55.58 -143.83,-59.06l0 -0.06 -0.44 0.03 -0.44 -0.03 0 0.06c-59.5,3.48 -106.75,23.71 -142.94,59.06 -64.61,71.45 -117.34,144.47 -164.01,218.13 -51.22,55.54 -108.3,106.39 -174.11,151.94z"/>
  </g>
 </g>
</svg>
