<?xml version="1.0" encoding="UTF-8"?>
<!DOCTYPE svg PUBLIC "-//W3C//DTD SVG 1.1//EN" "http://www.w3.org/Graphics/SVG/1.1/DTD/svg11.dtd">
<!-- Creator: CorelDRAW 2019 (64-Bit) -->
<svg xmlns="http://www.w3.org/2000/svg" xml:space="preserve" width="79.8687mm" height="48.9042mm" version="1.1" style="shape-rendering:geometricPrecision; text-rendering:geometricPrecision; image-rendering:optimizeQuality; fill-rule:evenodd; clip-rule:evenodd"
viewBox="0 0 3065.72 1877.17"
 xmlns:xlink="http://www.w3.org/1999/xlink">
 <defs>
  <style type="text/css">
   <![CDATA[
    .fil1 {fill:white}
    .fil0 {fill:white;fill-rule:nonzero}
   ]]>
  </style>
 </defs>
 <g id="Capa_x0020_1">
  <metadata id="CorelCorpID_0Corel-Layer"/>
  <path class="fil0" d="M-0 888.17l0 -825.99 350.45 0c49.56,0 94.01,11.6 133.34,34.81 39.33,23.2 70.6,54.67 93.81,94.4 23.21,39.72 34.81,84.76 34.81,135.11 0,51.14 -11.6,97.35 -34.81,138.65 -23.21,41.3 -54.48,73.95 -93.81,97.94 -39.33,23.99 -83.78,35.99 -133.34,35.99l-173.46 0 0 289.1 -177 0zm174.64 -449.58l156.94 0c18.09,0 34.61,-4.72 49.56,-14.16 14.95,-9.44 27.14,-22.42 36.58,-38.94 9.44,-16.52 14.16,-35.4 14.16,-56.64 0,-21.24 -4.72,-39.72 -14.16,-55.46 -9.44,-15.73 -21.63,-28.32 -36.58,-37.76 -14.95,-9.44 -31.47,-14.16 -49.56,-14.16l-156.94 0 0 217.12z"/>
  <path id="1" class="fil0" d="M665.68 888.17l0 -825.99 556.96 0 0 155.76 -383.5 0 0 514.48 391.76 0 0 155.76 -565.21 0zm82.6 -345.74l0 -151.04 417.72 0 0 151.04 -417.72 0z"/>
  <polygon id="2" class="fil0" points="1481.21,888.17 1481.21,221.47 1242.86,221.47 1242.86,62.18 1906.01,62.18 1906.01,221.47 1658.21,221.47 1658.21,888.17 "/>
  <path class="fil0" d="M8.26 1865.37l0 -825.99 127.44 0 0 825.99 -127.44 0zm56.64 -351.64l0 -122.72 425.98 0 0 122.72 -425.98 0zm0 -351.64l0 -122.72 479.08 0 0 122.72 -479.08 0z"/>
  <path id="1" class="fil0" d="M613.85 1865.37l0 -619.5 121.54 0 0 619.5 -121.54 0zm59 -756.37c-25.96,0 -46.02,-6.69 -60.18,-20.06 -14.16,-13.37 -21.24,-32.25 -21.24,-56.64 0,-22.81 7.28,-41.3 21.83,-55.46 14.55,-14.16 34.42,-21.24 59.59,-21.24 25.96,0 46.02,6.69 60.18,20.06 14.16,13.37 21.24,32.25 21.24,56.64 0,22.82 -7.28,41.3 -21.83,55.46 -14.56,14.16 -34.42,21.24 -59.59,21.24z"/>
  <path id="2" class="fil0" d="M827.69 1865.37l0 -619.5 121.54 0 0 127.44 -21.24 14.16c7.86,-27.53 23.21,-52.91 46.02,-76.11 22.81,-23.21 49.95,-42.09 81.42,-56.64 31.47,-14.56 63.72,-21.83 96.76,-21.83 47.2,0 86.53,9.24 118,27.73 31.46,18.49 55.07,46.61 70.8,84.37 15.73,37.76 23.6,85.35 23.6,142.78l0 377.6 -121.54 0 0 -369.34c0,-35.4 -4.72,-64.7 -14.16,-87.91 -9.44,-23.2 -23.99,-40.12 -43.66,-50.74 -19.67,-10.62 -44.05,-15.14 -73.16,-13.57 -23.6,0 -45.23,3.74 -64.9,11.21 -19.67,7.47 -36.78,17.89 -51.33,31.27 -14.55,13.37 -25.96,28.91 -34.22,46.61 -8.26,17.7 -12.39,36.78 -12.39,57.23l0 375.24 -60.18 0c-10.23,0 -20.45,0 -30.68,0 -10.23,0 -20.45,0 -30.68,0z"/>
  <path id="3" class="fil0" d="M1694.06 1877.17c-56.64,0 -107.18,-13.96 -151.63,-41.89 -44.45,-27.92 -79.65,-66.08 -105.61,-114.46 -25.96,-48.38 -38.94,-103.64 -38.94,-165.79 0,-62.14 12.78,-117.41 38.35,-165.79 25.57,-48.38 60.38,-86.53 104.43,-114.46 44.05,-27.93 94.01,-41.89 149.86,-41.89 30.68,0 60.38,4.92 89.09,14.75 28.71,9.83 54.48,23.21 77.29,40.12 22.81,16.92 40.71,35.4 53.69,55.46 12.98,20.06 19.47,40.32 19.47,60.77l-35.4 2.36 0 -414.18 121.54 0 0 873.19 -121.54 0 0 -147.5 23.6 0c0,18.88 -6.3,37.56 -18.88,56.05 -12.59,18.49 -29.3,35.6 -50.15,51.33 -20.85,15.73 -44.84,28.32 -71.98,37.76 -27.14,9.44 -54.87,14.16 -83.19,14.16zm16.52 -105.02c36.97,0 69.62,-9.44 97.94,-28.32 28.32,-18.88 50.54,-44.64 66.67,-77.29 16.13,-32.65 24.19,-69.82 24.19,-111.51 0,-41.69 -8.06,-78.86 -24.19,-111.51 -16.13,-32.65 -38.35,-58.41 -66.67,-77.29 -28.32,-18.88 -60.97,-28.32 -97.94,-28.32 -36.97,0 -69.62,9.44 -97.94,28.32 -28.32,18.88 -50.54,44.65 -66.67,77.29 -16.13,32.65 -24.19,69.81 -24.19,111.51 0,41.69 8.06,78.86 24.19,111.51 16.13,32.65 38.35,58.41 66.67,77.29 28.32,18.88 60.97,28.32 97.94,28.32z"/>
  <path id="4" class="fil0" d="M2378.71 1877.17c-63.72,0 -120.16,-13.57 -169.33,-40.71 -49.17,-27.14 -87.71,-64.31 -115.64,-111.51 -27.93,-47.2 -41.89,-101.48 -41.89,-162.84 0,-48.78 7.86,-93.22 23.6,-133.34 15.73,-40.12 37.56,-74.93 65.49,-104.43 27.93,-29.5 61.36,-52.31 100.3,-68.44 38.94,-16.13 81.23,-24.19 126.85,-24.19 40.12,0 77.49,7.67 112.1,23.01 34.62,15.34 64.7,36.38 90.27,63.13 25.56,26.75 45.23,58.41 59,94.99 13.77,36.58 20.26,76.5 19.47,119.77l-1.18 51.92 -506.22 0 -27.14 -96.76 428.34 0 -17.7 20.06 0 -28.32c-2.36,-25.96 -11.01,-49.17 -25.96,-69.62 -14.95,-20.46 -33.82,-36.58 -56.64,-48.38 -22.81,-11.8 -47.59,-17.7 -74.34,-17.7 -42.48,0 -78.27,8.06 -107.38,24.19 -29.11,16.13 -51.14,39.73 -66.08,70.8 -14.94,31.07 -22.42,69.42 -22.42,115.05 0,43.27 9.04,80.83 27.14,112.69 18.09,31.86 43.66,56.44 76.7,73.75 33.04,17.31 71.19,25.96 114.46,25.96 30.68,0 59.2,-5.11 85.55,-15.34 26.35,-10.23 54.87,-28.71 85.55,-55.46l61.36 86.14c-18.88,18.88 -41.89,35.4 -69.03,49.56 -27.14,14.16 -55.85,25.37 -86.14,33.63 -30.29,8.26 -59.98,12.39 -89.09,12.39z"/>
  <path id="5" class="fil0" d="M2686.95 1865.37l0 -619.5 122.72 0 0 194.7 -11.8 -47.2c8.65,-29.89 23.4,-57.03 44.25,-81.42 20.85,-24.39 44.84,-43.66 71.98,-57.82 27.14,-14.16 55.26,-21.24 84.37,-21.24 13.37,0 26.16,1.18 38.35,3.54 12.19,2.36 21.83,5.11 28.91,8.26l-31.86 132.16c-9.44,-3.93 -19.86,-7.28 -31.27,-10.03 -11.41,-2.75 -22.62,-4.13 -33.63,-4.13 -21.24,0 -41.49,4.13 -60.77,12.39 -19.27,8.26 -36.19,19.66 -50.74,34.22 -14.56,14.55 -26.16,31.47 -34.81,50.74 -8.65,19.27 -12.98,40.32 -12.98,63.13l0 342.2 -122.72 0z"/>
  <g id="_2589508611248">
   <ellipse class="fil1" cx="2344.04" cy="176.83" rx="135.37" ry="176.83"/>
   <ellipse class="fil1" cx="2662.16" cy="176.83" rx="135.37" ry="176.83"/>
   <ellipse class="fil1" transform="matrix(0.181997 0.059025 -0.0553744 0.170741 2912.86 461.57)" rx="707.53" ry="985.12"/>
   <ellipse class="fil1" transform="matrix(-0.181996 0.059025 0.0553739 0.170741 2092.74 457.057)" rx="707.53" ry="985.12"/>
   <path class="fil1" d="M2176.15 737.79c-96.65,80.58 -88.51,196.63 17.09,301.76 64.98,38.99 123.44,55.39 173.23,41.74 21.56,-10.67 41.49,-23.92 59.26,-40.61 25.81,-21.44 50.82,-34.22 76.63,-35.52 25.81,1.3 51.41,14.08 77.23,35.52 17.76,16.69 37.7,29.94 59.26,40.61 49.78,13.65 108.24,-2.75 173.22,-41.74 105.61,-105.13 113.75,-221.19 17.1,-301.76 -44.58,-30.86 -83.25,-65.31 -117.95,-102.94 -31.62,-49.91 -67.34,-99.38 -111.12,-147.78 -24.52,-23.95 -57.12,-37.66 -97.44,-40.01l0 -0.04 -0.3 0.02 -0.3 -0.02 0 0.04c-40.31,2.36 -72.32,16.06 -96.84,40.01 -43.77,48.4 -79.5,97.87 -111.11,147.78 -34.7,37.63 -73.37,72.07 -117.95,102.94z"/>
  </g>
 </g>
</svg>
