<?xml version="1.0" encoding="UTF-8"?>
<!DOCTYPE svg PUBLIC "-//W3C//DTD SVG 1.1//EN" "http://www.w3.org/Graphics/SVG/1.1/DTD/svg11.dtd">
<!-- Creator: CorelDRAW 2019 (64-Bit) -->
<svg xmlns="http://www.w3.org/2000/svg" xml:space="preserve" width="79.8687mm" height="48.9042mm" version="1.1" style="shape-rendering:geometricPrecision; text-rendering:geometricPrecision; image-rendering:optimizeQuality; fill-rule:evenodd; clip-rule:evenodd"
viewBox="0 0 18831.13 11530.44"
 xmlns:xlink="http://www.w3.org/1999/xlink">
 <defs>
  <style type="text/css">
   <![CDATA[
    .fil1 {fill:#116A96}
    .fil0 {fill:white;fill-rule:nonzero}
   ]]>
  </style>
 </defs>
 <g id="Capa_x0020_1">
  <metadata id="CorelCorpID_0Corel-Layer"/>
  <path class="fil0" d="M-0 5455.55l0 -5073.64 2152.66 0c304.43,0 577.44,71.28 819.04,213.83 241.6,142.53 433.66,335.82 576.21,579.84 142.55,244 213.83,520.64 213.83,829.88 0,314.1 -71.28,597.98 -213.83,851.65 -142.55,253.7 -334.61,454.22 -576.21,601.61 -241.6,147.36 -514.61,221.06 -819.04,221.06l-1065.45 0 0 1775.77 -1087.21 0zm1072.71 -2761.5l963.99 0c111.12,0 212.6,-29 304.41,-86.98 91.81,-58 166.69,-137.72 224.69,-239.19 57.98,-101.48 86.98,-217.43 86.98,-347.91 0,-130.45 -29,-244 -86.98,-340.65 -58,-96.64 -132.88,-173.96 -224.69,-231.93 -91.81,-58 -193.29,-86.98 -304.41,-86.98l-963.99 0 0 1333.64z"/>
  <path id="1" class="fil0" d="M4088.92 5455.55l0 -5073.64 3421.09 0 0 956.73 -2355.64 0 0 3160.15 2406.35 0 0 956.76 -3471.8 0zm507.34 -2123.68l0 -927.76 2565.83 0 0 927.76 -2565.83 0z"/>
  <polygon id="2" class="fil0" points="9098.32,5455.55 9098.32,1360.4 7634.22,1360.4 7634.22,381.91 11707.63,381.91 11707.63,1360.4 10185.53,1360.4 10185.53,5455.55 "/>
  <path class="fil0" d="M50.72 11457.97l0 -5073.64 782.8 0 0 5073.64 -782.8 0zm347.91 -2159.92l0 -753.8 2616.55 0 0 753.8 -2616.55 0zm0 -2159.92l0 -753.8 2942.72 0 0 753.8 -2942.72 0z"/>
  <path id="1" class="fil0" d="M3770.58 11457.97l0 -3805.24 746.54 0 0 3805.24 -746.54 0zm362.39 -4646.02c-159.46,0 -282.67,-41.07 -369.65,-123.22 -86.98,-82.14 -130.45,-198.1 -130.45,-347.91 0,-140.12 44.7,-253.67 134.09,-340.65 89.38,-86.98 211.4,-130.45 366.02,-130.45 159.46,0 282.7,41.07 369.65,123.22 86.98,82.14 130.48,198.1 130.48,347.89 0,140.15 -44.7,253.7 -134.09,340.67 -89.41,86.98 -211.4,130.45 -366.04,130.45z"/>
  <path id="2" class="fil0" d="M5084.06 11457.97l0 -3805.24 746.54 0 0 782.8 -130.45 86.98c48.31,-169.12 142.55,-324.97 282.67,-467.5 140.12,-142.55 306.84,-258.53 500.1,-347.91 193.29,-89.41 391.41,-134.09 594.34,-134.09 289.93,0 531.53,56.77 724.82,170.32 193.27,113.55 338.24,286.3 434.87,518.24 96.64,231.93 144.98,524.27 144.98,877.02l0 2319.38 -746.56 0 0 -2268.64c0,-217.46 -29,-397.45 -86.98,-540 -57.98,-142.53 -147.38,-246.43 -268.17,-311.65 -120.81,-65.24 -270.6,-93.01 -449.39,-83.37 -144.96,0 -277.84,22.96 -398.63,68.87 -120.81,45.91 -225.9,109.92 -315.3,192.06 -89.38,82.14 -159.46,177.59 -210.19,286.3 -50.74,108.72 -76.11,225.9 -76.11,351.54l0 2304.88 -369.65 0c-62.81,0 -125.62,0 -188.46,0 -62.81,0 -125.62,0 -188.43,0z"/>
  <path id="3" class="fil0" d="M10405.72 11530.44c-347.91,0 -658.36,-85.78 -931.36,-257.3 -273.03,-171.53 -489.26,-405.89 -648.71,-703.06 -159.46,-297.17 -239.17,-636.62 -239.17,-1018.36 0,-381.72 78.51,-721.17 235.54,-1018.34 157.05,-297.17 370.88,-531.53 641.45,-703.06 270.6,-171.55 577.44,-257.3 920.52,-257.3 188.46,0 370.85,30.2 547.24,90.59 176.36,60.41 334.61,142.55 474.74,246.43 140.12,103.91 250.06,217.46 329.78,340.67 79.74,123.22 119.61,247.64 119.61,373.28l-217.46 14.48 0 -2544.07 746.56 0 0 5363.58 -746.56 0 0 -906.02 144.98 0c0,115.98 -38.67,230.73 -115.98,344.28 -77.31,113.57 -179.99,218.66 -308.04,315.3 -128.05,96.64 -275.43,173.96 -442.13,231.93 -166.72,57.98 -337.04,86.98 -511,86.98zm101.48 -645.08c227.1,0 427.63,-57.98 601.58,-173.96 173.96,-115.95 310.47,-274.21 409.52,-474.74 99.05,-200.53 148.59,-428.85 148.59,-684.95 0,-256.1 -49.54,-484.4 -148.59,-684.93 -99.05,-200.53 -235.56,-358.78 -409.52,-474.76 -173.96,-115.95 -374.48,-173.96 -601.58,-173.96 -227.1,0 -427.63,58 -601.58,173.96 -173.96,115.98 -310.47,274.23 -409.52,474.76 -99.05,200.53 -148.59,428.83 -148.59,684.93 0,256.1 49.54,484.43 148.59,684.95 99.05,200.53 235.56,358.78 409.52,474.74 173.96,115.98 374.48,173.96 601.58,173.96z"/>
  <path id="4" class="fil0" d="M14611.19 11530.44c-391.39,0 -738.1,-83.35 -1040.1,-250.06 -302.01,-166.69 -538.77,-395.02 -710.3,-684.93 -171.55,-289.93 -257.3,-623.34 -257.3,-1000.23 0,-299.6 48.31,-572.61 144.96,-819.04 96.64,-246.43 230.73,-460.26 402.26,-641.45 171.55,-181.19 376.91,-321.32 616.08,-420.39 239.19,-99.05 498.93,-148.59 779.17,-148.59 246.43,0 475.96,47.11 688.56,141.35 212.62,94.22 397.45,223.47 554.5,387.76 157.03,164.29 277.84,358.78 362.39,583.48 84.57,224.69 124.42,469.93 119.59,735.69l-7.24 318.91 -3109.42 0 -166.72 -594.34 2631.05 0 -108.72 123.22 0 -173.96c-14.5,-159.46 -67.64,-302.01 -159.46,-427.63 -91.81,-125.65 -207.77,-224.69 -347.91,-297.17 -140.12,-72.48 -292.34,-108.74 -456.63,-108.74 -260.93,0 -480.79,49.54 -659.56,148.59 -178.79,99.07 -314.1,244.03 -405.91,434.89 -91.79,190.86 -137.69,426.42 -137.69,706.69 0,265.77 55.55,496.5 166.69,692.19 111.14,195.69 268.17,346.69 471.13,453 202.96,106.31 437.29,159.46 703.06,159.46 188.46,0 363.61,-31.41 525.47,-94.22 161.88,-62.81 337.04,-176.36 525.5,-340.65l376.89 529.11c-115.95,115.95 -257.3,217.43 -424,304.41 -166.72,86.98 -343.08,155.82 -529.11,206.56 -186.05,50.74 -368.45,76.11 -547.24,76.11z"/>
  <path id="5" class="fil0" d="M16504.52 11457.97l0 -3805.24 753.8 0 0 1195.93 -72.48 -289.91c53.14,-183.62 143.75,-350.32 271.8,-500.13 128.05,-149.79 275.41,-268.17 442.13,-355.15 166.69,-86.98 339.45,-130.45 518.24,-130.45 82.14,0 160.66,7.24 235.56,21.74 74.88,14.5 134.09,31.41 177.56,50.74l-195.69 811.78c-57.98,-24.17 -122.01,-44.7 -192.06,-61.61 -70.07,-16.91 -138.92,-25.37 -206.59,-25.37 -130.45,0 -254.87,25.37 -373.26,76.11 -118.38,50.74 -222.29,120.79 -311.67,210.19 -89.41,89.38 -160.66,193.29 -213.83,311.67 -53.14,118.38 -79.72,247.64 -79.72,387.76l0 2101.94 -753.8 0z"/>
  <g id="_2589507271984">
   <ellipse class="fil1" cx="14398.21" cy="1086.16" rx="831.51" ry="1086.15"/>
   <ellipse class="fil1" cx="16352.26" cy="1086.16" rx="831.51" ry="1086.15"/>
   <ellipse class="fil1" transform="matrix(0.181997 0.059025 -0.0553744 0.170741 17892.2 2835.18)" rx="4345.97" ry="6051.1"/>
   <ellipse class="fil1" transform="matrix(-0.181996 0.059025 0.0553739 0.170741 12854.6 2807.46)" rx="4345.97" ry="6051.1"/>
   <path class="fil1" d="M13366.93 4531.85c-593.68,494.94 -543.7,1207.81 104.99,1853.58 399.15,239.5 758.23,340.25 1064.03,256.38 132.44,-65.57 254.87,-146.94 363.99,-249.45 158.56,-131.68 312.17,-210.19 470.68,-218.19 158.56,7.99 315.8,86.51 474.36,218.19 109.09,102.52 231.56,183.88 363.99,249.45 305.8,83.87 664.89,-16.88 1064.01,-256.38 648.71,-645.77 698.7,-1358.64 105.01,-1853.58 -273.83,-189.56 -511.37,-401.15 -724.52,-632.28 -194.21,-306.56 -413.62,-610.42 -682.52,-907.74 -150.59,-147.1 -350.86,-231.3 -598.49,-245.77l0 -0.24 -1.84 0.12 -1.82 -0.12 0 0.24c-247.61,14.48 -444.25,98.67 -594.86,245.77 -268.88,297.31 -488.32,601.18 -682.5,907.74 -213.14,231.13 -450.69,442.72 -724.52,632.28z"/>
  </g>
 </g>
</svg>
